HIERARCHY
ROOT Pelvis
{
	OFFSET 0.000000 0.000000 0.000000
	CHANNELS 6 Xposition Yposition Zposition Xrotation Yrotation Zrotation
	JOINT LeftUpLeg_virtual
	{
		OFFSET 0.000000 0.000000 0.000000
		CHANNELS 3 Xrotation Yrotation Zrotation
		JOINT LeftUpLeg
		{
			OFFSET 18.735201 -5.666702 -4.541200
			CHANNELS 3 Xrotation Yrotation Zrotation
			JOINT LeftLeg
			{
				OFFSET -0.021200 -31.938179 0.493100
				CHANNELS 3 Xrotation Yrotation Zrotation
				JOINT LeftFoot
				{
					OFFSET 0.021200 -31.938179 -4.336299
					CHANNELS 3 Xrotation Yrotation Zrotation
					JOINT LeftToeBase
					{
						OFFSET 0.943001 -26.722000 15.023500
						CHANNELS 3 Xrotation Yrotation Zrotation
						End Site
						{
							OFFSET 0 0 0
						}
					}
				}
			}
		}
	}
	JOINT RightUpLeg_virtual
	{
		OFFSET 0.000000 0.000000 0.000000
		CHANNELS 3 Xrotation Yrotation Zrotation
		JOINT RightUpLeg
		{
			OFFSET -18.735201 -5.666702 -4.541200
			CHANNELS 3 Xrotation Yrotation Zrotation
			JOINT RightLeg
			{
				OFFSET 0.018946 -31.938133 0.493100
				CHANNELS 3 Xrotation Yrotation Zrotation
				JOINT RightFoot
				{
					OFFSET -0.018946 -31.938126 -4.336299
					CHANNELS 3 Xrotation Yrotation Zrotation
					JOINT RightToeBase
					{
						OFFSET -0.943001 -26.722004 15.023500
						CHANNELS 3 Xrotation Yrotation Zrotation
						End Site
						{
							OFFSET 0 0 0
						}
					}
				}
			}
		}
	}
	JOINT Hips_virtual
	{
		OFFSET 0.000000 0.000000 0.000000
		CHANNELS 3 Xrotation Yrotation Zrotation
		JOINT Hips
		{
			OFFSET -0.000000 -0.000000 -0.000000
			CHANNELS 3 Xrotation Yrotation Zrotation
			JOINT Spine
			{
				OFFSET 0.000000 10.199997 -0.299500
				CHANNELS 3 Xrotation Yrotation Zrotation
				JOINT Spine1
				{
					OFFSET 0.000000 11.900002 -1.516600
					CHANNELS 3 Xrotation Yrotation Zrotation
					JOINT Spine2
					{
						OFFSET 0.000000 13.600006 -2.842500
						CHANNELS 3 Xrotation Yrotation Zrotation
						JOINT Neck_virtual
						{
							OFFSET 0.000000 0.000000 0.000000
							CHANNELS 3 Xrotation Yrotation Zrotation
							JOINT Neck
							{
								OFFSET 0.000000 9.624100 -2.890100
								CHANNELS 3 Xrotation Yrotation Zrotation
								JOINT Head
								{
									OFFSET 0.000000 14.068802 -1.351900
									CHANNELS 3 Xrotation Yrotation Zrotation
									End Site
									{
										OFFSET 0 0 0
									}
								}
							}
						}
						JOINT LeftShoulder_virtual
						{
							OFFSET 0.000000 0.000000 0.000000
							CHANNELS 3 Xrotation Yrotation Zrotation
							JOINT LeftShoulder
							{
								OFFSET 15.263000 10.923401 -0.547700
								CHANNELS 3 Xrotation Yrotation Zrotation
								JOINT LeftArm
								{
									OFFSET 25.438599 -2.830597 -13.032500
									CHANNELS 3 Xrotation Yrotation Zrotation
									JOINT LeftForeArm
									{
										OFFSET 29.960503 0.000000 0.000000
										CHANNELS 3 Xrotation Yrotation Zrotation
										JOINT LeftHand
										{
											OFFSET 27.849251 0.000000 0.000000
											CHANNELS 3 Xrotation Yrotation Zrotation
											End Site
											{
												OFFSET 0 0 0
											}
										}
									}
								}
							}
						}
						JOINT RightShoulder_virtual
						{
							OFFSET 0.000000 0.000000 0.000000
							CHANNELS 3 Xrotation Yrotation Zrotation
							JOINT RightShoulder
							{
								OFFSET -15.263000 10.923401 -0.547700
								CHANNELS 3 Xrotation Yrotation Zrotation
								JOINT RightArm
								{
									OFFSET -25.438599 -2.830597 -13.032500
									CHANNELS 3 Xrotation Yrotation Zrotation
									JOINT RightForeArm
									{
										OFFSET -29.960503 0.000000 0.000000
										CHANNELS 3 Xrotation Yrotation Zrotation
										JOINT RightHand
										{
											OFFSET -27.849251 0.000000 0.000000
											CHANNELS 3 Xrotation Yrotation Zrotation
											End Site
											{
												OFFSET 0 0 0
											}
										}
									}
								}
							}
						}
					}
				}
			}
		}
	}
}
MOTION
Frames: 4
Frame Time: 0.03333333
0.202477 93.989838 1.692624 0.000000 0.000000 0.000000 11.024318 -11.239896 -2.127660 -25.762801 9.763337 12.482281 30.913962 6.136314 -1.320485 -16.121564 6.936481 -3.522487 0.000000 0.000000 0.000000 6.455380 -3.338623 2.926128 -21.035120 -6.541440 -11.679044 28.994887 -6.180925 -0.343324 -18.710397 -10.124623 6.601484 0.000000 0.000000 0.000000 -1.184322 -1.569254 0.057267 -2.789766 4.442893 -0.974688 5.366670 1.157768 -1.274559 1.183294 1.069205 -0.511791 0.000000 0.000000 0.000000 2.881429 0.493655 -0.271742 -0.655362 -0.053261 -0.102660 0.000000 0.000000 0.000000 2.414564 0.876583 -1.192746 1.532961 -5.527149 -10.733040 -2.220903 2.148795 -54.250075 0.858476 -30.365553 -4.786933 0.000000 0.000000 0.000000 2.635769 -0.124564 1.057755 1.365970 4.328428 11.759936 1.342388 1.006335 51.352692 1.929282 35.597450 4.220743 0.000000 0.000000 0.000000 
0.185711 94.003571 1.662285 0.000000 0.000000 0.000000 11.036812 -11.317371 -2.111843 -25.731353 9.741119 12.482066 30.916452 6.162440 -1.342107 -16.120471 6.974300 -3.548241 0.000000 0.000000 0.000000 6.463399 -3.198934 2.946436 -21.019132 -6.509725 -11.639973 28.975732 -6.220944 -0.323931 -18.734198 -10.172534 6.601795 0.000000 0.000000 0.000000 -1.171582 -1.521029 0.065685 -2.760560 4.651404 -0.952649 5.337661 1.156461 -1.313941 1.152376 1.089749 -0.511636 0.000000 0.000000 0.000000 2.893367 0.499150 -0.268337 -0.657546 -0.056899 -0.103019 0.000000 0.000000 0.000000 2.388628 0.881849 -1.197269 1.538963 -5.543218 -10.768959 -2.172970 2.398529 -54.263917 0.847557 -30.155371 -4.785251 0.000000 0.000000 0.000000 2.627464 -0.098555 1.052941 1.391987 4.305188 11.858948 1.122893 1.012318 51.487960 1.831866 35.719246 4.288530 0.000000 0.000000 0.000000 
0.162367 94.027870 1.605210 0.000000 0.000000 0.000000 11.051988 -11.437312 -2.085293 -25.685881 9.704436 12.484447 30.936024 6.206987 -1.380233 -16.106023 7.039408 -3.594500 0.000000 0.000000 0.000000 6.477612 -2.939326 2.982290 -20.991205 -6.450420 -11.569500 28.934502 -6.289892 -0.289636 -18.782460 -10.255361 6.602989 0.000000 0.000000 0.000000 -1.147090 -1.439236 0.087629 -2.718086 5.051293 -0.895085 5.282139 1.162354 -1.384098 1.098034 1.127298 -0.512249 0.000000 0.000000 0.000000 2.918022 0.510164 -0.262246 -0.660263 -0.064987 -0.104048 0.000000 0.000000 0.000000 2.341082 0.890952 -1.204836 1.548936 -5.576997 -10.827883 -2.082067 2.868329 -54.286934 0.818265 -29.784324 -4.786210 0.000000 0.000000 0.000000 2.613789 -0.051165 1.043687 1.437656 4.251864 12.037952 0.703032 1.022683 51.741162 1.650941 35.943259 4.416800 0.000000 0.000000 0.000000 
0.146735 94.057251 1.527580 0.000000 0.000000 0.000000 11.055164 -11.543771 -2.056430 -25.652920 9.666091 12.493457 30.990921 6.257213 -1.425663 -16.062998 7.114169 -3.651652 0.000000 0.000000 0.000000 6.495168 -2.595904 3.026231 -20.957660 -6.371384 -11.480182 28.868560 -6.370766 -0.248071 -18.854426 -10.352768 6.604844 0.000000 0.000000 0.000000 -1.111589 -1.344201 0.130837 -2.686670 5.610947 -0.784094 5.206731 1.188985 -1.470589 1.031755 1.176258 -0.514395 0.000000 0.000000 0.000000 2.956329 0.526946 -0.254657 -0.661166 -0.078511 -0.106148 0.000000 0.000000 0.000000 2.279701 0.901958 -1.212810 1.560536 -5.630427 -10.890206 -1.957949 3.509779 -54.311629 0.759043 -29.329563 -4.795824 0.000000 0.000000 0.000000 2.599877 0.010208 1.030660 1.493048 4.159283 12.266385 0.120297 1.037614 52.081343 1.410849 36.238470 4.591137 0.000000 0.000000 0.000000 
